<?xml version="1.0" encoding="UTF-8" standalone="no"?>
<!-- Created with Inkscape (http://www.inkscape.org/) -->

<svg
   xmlns:dc="http://purl.org/dc/elements/1.1/"
   xmlns:cc="http://creativecommons.org/ns#"
   xmlns:rdf="http://www.w3.org/1999/02/22-rdf-syntax-ns#"
   xmlns:svg="http://www.w3.org/2000/svg"
   xmlns="http://www.w3.org/2000/svg"
   xmlns:xlink="http://www.w3.org/1999/xlink"
   xmlns:sodipodi="http://sodipodi.sourceforge.net/DTD/sodipodi-0.dtd"
   xmlns:inkscape="http://www.inkscape.org/namespaces/inkscape"
   id="svg2985"
   version="1.1"
   inkscape:version="0.48.4 r9939"
   width="3275"
   height="2537"
   sodipodi:docname="RotatedToFix.svg"
   enable-background="new"
   inkscape:export-filename="C:\Users\JMIM\Pictures\MeowExtreme.png"
   inkscape:export-xdpi="90"
   inkscape:export-ydpi="90">
  <metadata
     id="metadata2991">
    <rdf:RDF>
      <cc:Work
         rdf:about="">
        <dc:format>image/svg+xml</dc:format>
        <dc:type
           rdf:resource="http://purl.org/dc/dcmitype/StillImage" />
        <dc:title />
      </cc:Work>
    </rdf:RDF>
  </metadata>
  <defs
     id="defs2989">
    <linearGradient
       id="linearGradient4000">
      <stop
         style="stop-color:#d23c24;stop-opacity:1;"
         offset="0"
         id="stop4002" />
      <stop
         id="stop4008"
         offset="0.5"
         style="stop-color:#390b24;stop-opacity:0.96470588;" />
      <stop
         style="stop-color:#103c24;stop-opacity:0.9285714;"
         offset="1"
         id="stop4004" />
    </linearGradient>
    <linearGradient
       id="linearGradient3987">
      <stop
         style="stop-color:#3d5424;stop-opacity:1;"
         offset="0"
         id="stop3989" />
      <stop
         style="stop-color:#a42924;stop-opacity:1;"
         offset="1"
         id="stop3991" />
    </linearGradient>
    <linearGradient
       id="linearGradient3920">
      <stop
         style="stop-color:#ffff00;stop-opacity:1;"
         offset="0"
         id="stop3922" />
      <stop
         id="stop3930"
         offset="0.25"
         style="stop-color:#ff1e0a;stop-opacity:1;" />
      <stop
         id="stop3928"
         offset="0.5"
         style="stop-color:#7f5814;stop-opacity:1;" />
      <stop
         style="stop-color:#002e28;stop-opacity:1;"
         offset="1"
         id="stop3924" />
    </linearGradient>
    <linearGradient
       id="linearGradient3877">
      <stop
         style="stop-color:#0e5d40;stop-opacity:0.59821427;"
         offset="0"
         id="stop3879" />
      <stop
         style="stop-color:#dd0b00;stop-opacity:1;"
         offset="1"
         id="stop3881" />
    </linearGradient>
    <filter
       inkscape:collect="always"
       id="filter3873">
      <feBlend
         inkscape:collect="always"
         mode="darken"
         in2="BackgroundImage"
         id="feBlend3875" />
    </filter>
    <filter
       inkscape:collect="always"
       id="filter3910">
      <feBlend
         inkscape:collect="always"
         mode="multiply"
         in2="BackgroundImage"
         id="feBlend3912" />
    </filter>
    <filter
       color-interpolation-filters="sRGB"
       inkscape:collect="always"
       id="filter3910-8">
      <feBlend
         inkscape:collect="always"
         mode="multiply"
         in2="BackgroundImage"
         id="feBlend3912-2" />
    </filter>
    <linearGradient
       inkscape:collect="always"
       xlink:href="#linearGradient3877"
       id="linearGradient3883"
       x1="2649.3367"
       y1="831.38129"
       x2="2296.0918"
       y2="853.89197"
       gradientUnits="userSpaceOnUse" />
    <linearGradient
       inkscape:collect="always"
       xlink:href="#linearGradient3920"
       id="linearGradient3926"
       x1="2390.0696"
       y1="887.70508"
       x2="2637.4026"
       y2="884.0318"
       gradientUnits="userSpaceOnUse" />
    <linearGradient
       inkscape:collect="always"
       xlink:href="#linearGradient3877"
       id="linearGradient3938"
       x1="2479.6057"
       y1="635.42987"
       x2="2571.5144"
       y2="635.42987"
       gradientUnits="userSpaceOnUse" />
    <linearGradient
       inkscape:collect="always"
       xlink:href="#linearGradient3877"
       id="linearGradient3946"
       x1="2786.3499"
       y1="555.40527"
       x2="2732.4443"
       y2="557.85413"
       gradientUnits="userSpaceOnUse" />
    <linearGradient
       inkscape:collect="always"
       xlink:href="#linearGradient3877"
       id="linearGradient3948"
       x1="2350.8879"
       y1="546.09167"
       x2="2295.7891"
       y2="544.86725"
       gradientUnits="userSpaceOnUse" />
    <filter
       inkscape:collect="always"
       id="filter3967">
      <feBlend
         inkscape:collect="always"
         mode="multiply"
         in2="BackgroundImage"
         id="feBlend3969" />
    </filter>
    <linearGradient
       inkscape:collect="always"
       xlink:href="#linearGradient3987"
       id="linearGradient3993"
       x1="2448.3416"
       y1="913.41791"
       x2="2259.5566"
       y2="904.84698"
       gradientUnits="userSpaceOnUse" />
    <linearGradient
       inkscape:collect="always"
       xlink:href="#linearGradient4000"
       id="linearGradient4006"
       x1="2597.3889"
       y1="836.57605"
       x2="2599.1206"
       y2="930.94788"
       gradientUnits="userSpaceOnUse" />
    <filter
       inkscape:collect="always"
       id="filter4033">
      <feBlend
         inkscape:collect="always"
         mode="multiply"
         in2="BackgroundImage"
         id="feBlend4035" />
    </filter>
    <filter
       inkscape:collect="always"
       id="filter4046">
      <feBlend
         inkscape:collect="always"
         mode="multiply"
         in2="BackgroundImage"
         id="feBlend4048" />
    </filter>
    <filter
       inkscape:collect="always"
       id="filter4071">
      <feBlend
         inkscape:collect="always"
         mode="lighten"
         in2="BackgroundImage"
         id="feBlend4073" />
    </filter>
  </defs>
  <sodipodi:namedview
     pagecolor="#ffffff"
     bordercolor="#666666"
     borderopacity="1"
     objecttolerance="10"
     gridtolerance="10"
     guidetolerance="10"
     inkscape:pageopacity="0"
     inkscape:pageshadow="2"
     inkscape:window-width="1366"
     inkscape:window-height="705"
     id="namedview2987"
     showgrid="false"
     inkscape:zoom="0.1698385"
     inkscape:cx="1517.7785"
     inkscape:cy="1213.4181"
     inkscape:window-x="-8"
     inkscape:window-y="-8"
     inkscape:window-maximized="1"
     inkscape:current-layer="layer3" />
  <g
     inkscape:groupmode="layer"
     id="layer3"
     inkscape:label="SourceArt"
     style="display:inline">
    <image
       sodipodi:absref="C:\DEV\GIT_REPOS\GIT_SUBSONIC_ASSETS\props\smeltingPlant\SOURCE\MachinesRotateFix.png"
       xlink:href="MachinesRotateFix.png"
       width="3275"
       height="2537"
       id="image3041"
       x="137.65073"
       y="62.237991" />
  </g>
  <g
     inkscape:groupmode="layer"
     id="layer1"
     inkscape:label="TraceOver"
     style="display:inline"
     sodipodi:insensitive="true">
    <path
       style="fill:#ff0000;fill-opacity:1;stroke:#000000;stroke-width:1px;stroke-linecap:butt;stroke-linejoin:miter;stroke-opacity:1"
       d="m 369.78125,156.71875 0,1030.96875 724.84375,0 0,-1030.96875 -724.84375,0 z m 63.65625,51.4375 584.0625,3.65625 8.5625,6.125 1.2187,384.46875 -25.7187,29.40625 0,35.5 19.5937,15.90625 4.9063,34.28125 -29.375,31.84375 1.21875,30.625 -63.6875,2.4375 L 933,839.9375 l 61.21875,0 6.12505,29.40625 24.5,0 -1.2188,208.15625 -23.2812,6.125 -1.2188,25.6875 -538.75,1.25 -4.875,-30.625 -24.5,2.4375 -1.21875,-215.5 28.15625,-1.21875 1.21875,-28.15625 60,4.90625 0,-67.34375 -58.78125,4.90625 1.21875,-24.5 -33.03125,-26.9375 1.21875,-45.3125 28.15625,-20.8125 1.21875,-36.71875 -33.0625,-31.84375 0,-352.625 0,-22.0625 7.34375,-11 z m 472.625,238.75 -25.71875,4.90625 2.46875,33.0625 9.78125,-1.21875 -2.4375,25.6875 -8.5625,1.25 3.65625,14.6875 8.5625,0 0,22.03125 -17.125,-2.4375 4.90625,23.25 25.6875,1.21875 28.1875,26.9375 0,-121.21875 -29.40625,-28.15625 z M 813,449.375 l -117.53125,1.21875 2.4375,41.625 14.71875,14.6875 -13.46875,14.6875 6.125,46.53125 L 813,566.90625 l -1.21875,-20.8125 -12.25,-2.4375 0,-17.15625 12.25,-1.21875 -1.21875,-19.59375 -12.25,-1.21875 0,-22.0625 14.6875,0 0,-33.03125 z m -268.125,1.21875 -28.15625,31.8125 2.4375,107.75 25.71875,-17.125 28.15625,-3.6875 0,-37.9375 -18.375,-22.0625 22.03125,-14.6875 0,-42.84375 -31.8125,-1.21875 z m 397.9375,508.125 -41.625,37.96875 -63.6875,35.5 -75.90625,22.0313 -2.4375,24.5 199.5625,0 2.4375,-117.56255 -18.34375,-2.4375 z m -423.65625,2.4375 -26.9375,1.25 3.65625,118.74995 195.9375,-3.6562 0,-25.7188 -83.28125,-19.5937 -53.875,-29.375 -35.5,-41.65625 z"
       id="path3770"
       inkscape:connector-curvature="0" />
    <path
       style="fill:#000000;fill-opacity:1;stroke:#000000;stroke-width:1px;stroke-linecap:butt;stroke-linejoin:miter;stroke-opacity:1"
       d="m 270.125,1307.5625 0,813.8437 2857.125,0 0,-813.8437 -2857.125,0 z m 402.09375,102.9687 384.46875,1.2188 4.875,23.2812 110.2187,-3.6874 0,-20.8126 36.7188,3.6876 -1.2188,28.1562 29.375,0 1.2188,31.8125 104.0938,-2.4375 26.9374,11.0312 63.6563,58.75 37.9687,-4.875 13.4688,14.6876 17.125,-18.375 66.125,64.9062 -14.6875,18.375 12.25,17.125 2.4375,42.8438 112.6562,99.1874 26.9376,-3.6562 6.125,-47.75 30.5937,-17.1562 0,-25.7188 31.8437,-4.9062 -1.2187,-22.0313 89.375,6.125 2.4687,22.0313 28.1563,2.4687 6.125,18.3437 29.375,0 -3.6875,-46.5 83.2812,-3.6874 2.4376,-25.7188 31.8437,-1.2188 4.9063,26.9376 143.25,-4.9063 1.2187,-20.8125 35.5,0 3.6875,30.625 30.5938,-2.4688 28.1874,-30.5937 33.0313,-1.2187 17.1563,-26.9376 52.6562,-52.6562 72.2188,-36.75 91.8437,-15.9062 101.625,11.0312 77.1563,45.2812 66.0937,68.5938 15.9375,71 26.9375,8.5625 44.0625,95.5 2.4688,137.1563 28.1562,24.4687 1.2188,-20.8125 17.1562,-8.5625 -1.25,-9.7813 52.6562,3.6563 0,9.8125 15.9376,6.125 -1.25,28.1562 30.625,23.25 -1.2188,28.1563 -686.9062,0 -7.3438,-24.4687 -83.2812,0 -3.6563,25.7187 -88.1563,1.2187 -3.6874,-24.5 -28.1563,-1.2187 0,25.7187 -28.1563,-4.9062 -2.4374,-22.0312 -33.0626,1.2187 1.2188,25.7187 -83.25,-1.2187 0,-24.5 -86.9375,-3.6875 -2.4687,30.625 -85.6876,-1.2188 -8.5937,-35.5312 -28.1563,3.6875 -3.6562,-28.1563 -24.5,-4.9062 -1.2188,-24.5 -17.1562,0 -14.6875,-18.3438 -4.9063,-46.5312 -532.625,4.9062 1.25,23.25 24.4688,2.4376 -3.6562,61.2187 -53.875,2.4687 0,30.5938 -36.75,24.5 -110.18755,1.2188 -69.78125,-57.5313 -23.28125,-2.4687 1.21875,36.75 -15.90625,0 1.21875,20.8124 -33.0625,1.2188 -3.65625,-29.375 -15.9375,-1.25 1.21875,-24.4688 -143.25,0 0,30.5938 -14.6875,0 -2.4375,29.4062 -34.28125,-1.2187 -3.6875,-31.8437 -14.6875,-1.2188 2.4375,-29.4062 -52.65625,2.4687 0,26.9375 -30.59375,6.125 -1.21875,24.4688 -94.28125,2.4687 -3.6875,-35.5313 -20.8125,0 -3.65625,-112.625 34.28125,-34.3124 -4.90625,-159.1563 -26.9375,-23.2813 3.6875,-121.2187 33.03125,0 2.46875,-48.9687 45.28125,-31.8438 131.03125,-1.2188 31.84375,-35.5 z M 335.5,1531.75 l 60,1.2188 1.21875,116.3124 -30.625,36.75 2.46875,143.25 29.375,36.75 -1.21875,142.0313 -61.21875,0 0,-476.3125 z m 898.7188,3.6875 0,26.9375 -25.7188,2.4375 -1.2188,30.5937 -31.8437,0 1.2187,20.8438 -36.7187,36.7188 2.4375,88.1562 33.0625,4.9062 1.2187,29.375 382.0313,-3.6562 -44.0937,-50.2188 -29.375,6.125 -24.5,-23.25 -19.5626,17.125 -63.6874,-63.6562 18.375,-15.9375 -23.2813,-22.0313 7.375,-26.9374 -58.7813,-56.3126 -86.9374,-1.2187 z m -565.68755,25.6875 -26.9375,31.8438 -66.125,1.2187 -1.21875,55.0937 -29.375,36.75 -1.21875,19.5938 34.28125,4.9062 3.65625,23.25 L 611,1735 l 0,34.2812 22.03125,-1.2187 0,-29.375 31.84375,0 6.09375,29.375 24.5,-1.2187 1.21875,-28.1563 28.15625,2.4375 0,26.9375 26.9375,1.2187 2.46875,-26.9374 33.0625,1.2187 1.21875,25.7187 26.9375,-1.2187 0,-26.9375 25.71875,2.4375 2.4375,24.5 28.15625,2.4375 -3.65625,-24.4688 34.28125,-1.2187 3.65625,24.4687 25.71875,-2.4374 0,-25.7188 33.0625,-1.2188 6.125,29.375 22.03125,-4.9062 0,-19.5625 56.3438,-3.6875 3.6562,-79.5938 -35.5,-35.5 -1.2188,-33.0624 -172.6562,-3.6563 -12.25,-22.0625 -162.84375,-6.125 z m 1941.93755,4.9062 -17.1563,53.875 83.2813,3.6876 17.125,-26.9376 -25.7188,-13.4687 -29.375,-11.0313 -28.1562,-6.125 z m -124.9063,6.125 -24.4687,11.0313 -29.4063,19.5937 -17.125,20.8126 97.9375,0 -26.9375,-51.4376 z m -31.8125,110.1876 62.4375,57.5624 37.9687,-17.1562 1.2188,-13.4688 -1.2188,-11 -13.4687,-11.0312 -25.7187,-3.6562 -61.2188,-1.25 z m 275.25,13.9687 c -9.0852,0 -16.4688,6.9868 -16.4688,15.5937 0,8.607 7.3836,15.5626 16.4688,15.5626 9.0852,0 16.4375,-6.9556 16.4375,-15.5626 0,-8.6069 -7.3523,-15.5937 -16.4375,-15.5937 z m -367.0938,22.7813 -8.5624,18.375 -8.5626,35.5 0,28.1562 53.8438,3.6562 105.3125,-2.4374 -6.125,-20.8126 1.2187,-15.9062 -137.125,-46.5312 z m 462.3126,8.375 c -8.1289,0 -14.7188,6.2243 -14.7188,13.875 0,7.6506 6.5899,13.8437 14.7188,13.8437 8.1288,0 14.7187,-6.1931 14.7187,-13.8437 0,-7.6507 -6.5899,-13.875 -14.7187,-13.875 z m -190.4688,1.75 c -8.607,0 -15.5938,6.5899 -15.5938,14.7187 0,8.1288 6.9868,14.7187 15.5938,14.7187 8.607,0 15.5938,-6.5899 15.5938,-14.7187 0,-8.1288 -6.9868,-14.7187 -15.5938,-14.7187 z m 102.8438,22.9374 -37.9688,6.125 -34.2812,17.125 -13.4688,19.5938 51.4062,15.9062 37.9688,9.8126 14.6875,2.4374 8.5937,-17.125 7.3438,-29.4062 -3.6875,-15.9062 -30.5937,-8.5626 z"
       id="path3810"
       inkscape:connector-curvature="0" />
    <path
       style="fill:#000000;fill-opacity:1;stroke:none"
       d="m 1246.4688,115.09375 0,1055.43745 746.875,0 0,-1055.43745 z M 1653.6562,208 l 61.5,2.59375 1.7188,26 58,0 0.875,-22.53125 90.0312,0 -2.5937,60.625 -22.5,28.5625 -45.0313,2.59375 20.7813,51.9375 18.1875,0 33.75,64.09375 52.8125,0 0,180.9375 -23.375,2.59375 -2.5937,207.78125 29.4374,32.90625 -0.8437,180.96875 -27.7187,1.7187 0.875,57.1563 -32.9063,-2.625 -4.3437,-31.1563 -53.6563,3.4688 -4.3437,31.1562 -25.0938,23.375 -193.9375,5.2188 -110.8437,-3.4688 -25.0938,-28.5937 -2.5938,-30.2813 -53.6874,-0.875 -1.7188,35.5 -34.6562,0 -0.8438,-62.3437 -26.8438,-0.8437 -2.5937,-182.68755 31.1563,-36.375 -1.7188,-201.71875 -26.8438,-1.75 0.875,-180.9375 58,-1.75 30.2813,-56.6829 36.375,0.4329 c -14.5013,-17.17035 -20.1116,-36.81042 -13.8437,-59.75 l -13.8438,0.875 -38.9688,-32.0625 -0.875,-56.25 93.5,-3.46875 0.875,23.375 55.4063,1.71875 0.875,-25.96875 61.4687,-2.59375 2.5938,28.5625 53.6875,0.875 z m -161.0312,97.84375 0.875,24.25 20.7812,15.5625 24.25,-15.5625 -8.6562,-24.25 z M 1457.375,408 c -17.2658,0 -31.2812,13.44168 -31.2812,30.03125 0,16.58957 14.0154,30.03125 31.2812,30.03125 17.2658,0 31.25,-13.44168 31.25,-30.03125 0,-16.58957 -13.9842,-30.03125 -31.25,-30.03125 z m 288.9375,75.34375 -230.3125,2.59375 -32.9062,58.875 -63.1876,-3.46875 0.875,58 -32.9062,3.46875 0.875,232.90625 50.2188,1.71875 -0.875,-25.96875 -23.375,1.71875 0.8437,-63.1875 29.4375,-0.875 26,-33.75 3.4375,-57.15625 35.5,-0.875 -1.7187,19.0625 28.5624,-1.71875 -0.8437,-15.59375 28.5625,2.59375 4.3125,35.5 52.8125,-6.0625 0,-58 35.5,0 1.75,19.03125 56.2812,-0.875 -1.75,-16.4375 33.7813,-0.875 -0.875,72.75 59.75,52.8125 23.375,0 0.8437,55.40625 -21.625,0.875 0.8438,25.96875 52.8125,0 -3.4375,-240.6875 -27.7188,0 -5.1874,-57.15625 -45.0313,-0.875 z"
       id="path3839"
       inkscape:connector-curvature="0"
       sodipodi:nodetypes="cccccccccccccccccccccccccccccccccccccccccccccccccccccccccccccccccsssssccccccccccccccccccccccccccccccccccccccc" />
    <path
       style="fill:#000000;fill-opacity:1;stroke:#000000;stroke-width:1px;stroke-linecap:butt;stroke-linejoin:miter;stroke-opacity:1"
       d="m 2134.8361,453.19655 0,744.59375 831.1563,0 0,-744.59375 z m 273.5937,58.875 54.5313,0 c -3.2391,30.53153 3.1625,46.66202 17.3125,67.53125 48.0531,41.59596 84.6167,1.22442 87.4375,0 9.9304,-15.24445 16.7775,-25.32412 13.875,-65.78125 l 59.7187,0 3.4688,25.09375 72.75,35.5 -0.875,-25.09375 61.4688,1.71875 0,20.78125 17.3124,2.59375 0,55.40625 26.8438,0 0.875,34.625 -27.7188,1.75 2.5938,25.09375 22.5,4.34375 5.2188,266.65625 -28.5938,2.59375 0.875,58.00005 30.3125,2.625 -3.4687,85.6874 -93.5,4.3438 -2.5938,-38.0938 -112.5625,12.125 1.7187,22.5 -187.875,3.4688 -2.5937,-29.4375 -106.5,-13 0.875,41.5625 -96.9687,1.75 -0.875,-90.0625 31.1874,-2.5937 -4.3437,-60.5938 -24.25,-0.875 0,-89.1875 25.125,-0.84375 0,-28.59375 -27.7187,0 0.875,-151.5 24.25,0.875 0,-25.125 -26.8438,-2.59375 0.875,-38.09375 25.0938,0.875 0,-51.96875 17.3124,0 1.75,-32.03125 64.0626,1.75 0,26.84375 74.4687,-33.78125 z"
       id="path3793"
       inkscape:connector-curvature="0"
       sodipodi:nodetypes="cccccccccccccccccccccccccccccccccccccccccccccccccccccccccc" />
  </g>
  <rect
     style="fill:#000000;fill-opacity:1;stroke:none;stroke-width:3.51900004999999980;stroke-miterlimit:4;stroke-opacity:1;stroke-dasharray:none"
     id="rect3786"
     width="17.141891"
     height="56.32336"
     x="1163.1998"
     y="107.74903" />
  <g
     inkscape:groupmode="layer"
     id="layer2"
     inkscape:label="DarkMask"
     style="display:inline;filter:url(#filter3873)"
     sodipodi:insensitive="true">
    <path
       style="fill:#889430;fill-opacity:1;stroke:none"
       d="m 283.4375,-14.6875 0,1273.4063 931.1875,0 0,-1273.4063 -931.1875,0 z m 412.65625,276.375 0,122.9375 -181.8125,-1.71875 -3.46875,-116.03125 185.28125,-5.1875 z m 64.0625,6.9375 181.84375,0 1.71875,114.28125 -185.28125,0 1.71875,-114.28125 z m -204.3125,183.53125 348.0625,0 0,114.28125 -348.0625,0 0,-114.28125 z m 342.84375,117.75 41.5625,32.90625 -8.65625,323.8125 -76.1875,69.25 -84.84375,27.7188 -86.59375,0 L 588.75,985.5 l -65.8125,-60.625 -3.46875,-323.78125 25.96875,-29.4375 353.25,-1.75 z m -193.9375,60.625 -1.71875,29.4375 L 611.25,701.5 l -31.15625,81.40625 -29.4375,0 -3.46875,50.21875 29.4375,6.90625 57.125,105.625 71,20.78125 0,24.25 50.21875,0 L 758.4375,961.25 845.03125,919.6875 869.25,843.5 l 32.90625,-3.46875 0,-53.65625 -27.6875,-3.46875 L 827.6875,696.3125 751.5,663.40625 l 3.46875,-32.875 -50.21875,0 z M 465.8125,666.875 469.25,748.25 436.375,729.21875 432.90625,685.9375 465.8125,666.875 z m 533.3125,6.9375 24.25,10.375 5.1875,31.1875 -31.15625,29.4375 1.71875,-71 z m -540.25,193.9375 1.71875,212.9688 -31.15625,0 1.71875,-209.50005 L 458.875,867.75 z m 538.53125,1.71875 27.68755,1.75 -1.7188,209.50005 -27.71875,0 1.75,-211.25005 z"
       id="rect3843"
       inkscape:connector-curvature="0" />
    <path
       style="fill:#5e6500;fill-opacity:0.77192981;stroke:#000000;stroke-width:1px;stroke-linecap:butt;stroke-linejoin:miter;stroke-opacity:1;display:inline;filter:url(#filter3910)"
       d="m 1219.0312,78.125 0,1184.4375 810.4063,0 0,-1184.4375 -810.4063,0 z m 438.5313,130.625 55.0937,0 2.4688,25.71875 61.2188,2.46875 -1.25,-25.71875 90.625,1.21875 -3.6876,57.53125 -25.6874,31.84375 -42.875,0 -9.7813,-13.46875 -13.4687,-11 -19.5938,-12.25 -23.2812,-9.8125 -26.9376,-2.4375 -31.8124,7.34375 -23.2813,13.46875 -23.25,18.375 -6.125,9.78125 -186.125,-1.21875 -42.8437,-33.0625 2.4374,-56.3125 84.5,1.21875 3.6563,23.25 57.5625,1.25 3.6562,-25.71875 53.875,-1.21875 4.9063,26.9375 56.3437,-1.25 c 0,0 -1.2414,-26.9375 3.6563,-26.9375 z m 158.25,148.15625 18.3437,2.46875 31.8438,61.21875 52.6562,1.21875 2.4376,55.09375 L 1907.625,461 l -22.0312,-12.25 -25.7188,6.125 -14.6875,17.125 -9.7813,30.625 -4.9062,34.28125 -45.3125,0 -39.1875,-60 -232.625,6.125 -29.4062,58.78125 -67.3438,-6.125 -1.2188,-28.15625 -1.2187,-26.9375 -12.25,-20.8125 -22.0313,-12.25 -20.8124,3.65625 -20.8126,15.9375 -7.3437,18.34375 -1.2187,-68.5625 61.2187,-1.21875 28.1563,-53.875 177.5312,-2.4375 2.4375,28.15625 13.4687,26.9375 23.2813,29.375 33.0625,17.15625 26.9375,6.125 31.8437,-3.6875 34.2813,-14.6875 22.0313,-19.59375 19.5937,-30.59375 12.25,-26.9375 0,-14.71875 z m -459.1563,240 28.1563,2.4375 1.2187,486.09375 -30.625,-3.6563 -1.2187,-61.2187 -26.9375,0 0,-180 30.625,-34.28125 -1.2188,-209.375 z m 505.6563,0 34.3125,3.65625 -1.25,213.0625 28.1875,26.9375 -3.6875,183.6563 -22.0312,0 0,60 -29.4063,-4.9063 -6.125,-482.40625 z m -237.5313,36.71875 30.625,0 2.4376,15.9375 58.7812,0 2.4375,-14.6875 26.9375,-1.25 0,89.40625 -18.3438,9.78125 -24.5,6.125 -31.8437,-6.125 -28.1563,-12.25 -22.0312,-15.90625 3.6562,-71.03125 z m -150.5937,22.0625 34.2813,1.21875 1.2187,18.375 26.9375,0 2.4688,-14.71875 25.6874,0 2.4688,51.4375 -9.8125,9.78125 -19.5937,12.25 -25.6876,4.90625 -28.1874,-1.21875 -12.2188,-9.8125 2.4375,-72.21875 z m -55.125,95.5 405.2813,6.125 1.25,53.84375 -20.8438,-1.21875 -31.8125,0 1.2187,26.9375 -11.0312,1.21875 -3.6562,7.375 -11.0313,2.4375 -13.4687,-4.90625 -7.3438,-6.125 -9.7812,0 -2.4688,-25.71875 -26.9375,0 2.4687,116.34375 138.3438,-2.46875 3.6875,33.0625 -143.2813,2.46875 1.25,26.9375 140.7813,1.21875 0,31.84375 -412.625,1.2187 -2.4375,-31.8437 139.5938,-4.90625 0,-26.9375 -138.375,-1.21875 -2.4376,-25.71875 143.25,-1.21875 -3.6874,-123.65625 -22.0313,1.21875 1.2187,26.9375 -9.7812,2.4375 -2.4375,4.90625 -12.25,4.90625 L 1495,843 l -8.5938,-7.34375 -9.7812,-2.4375 0,-23.28125 -57.5625,-1.21875 0,-57.53125 z m 153.0625,56.3125 0,121.21875 106.5312,-2.4375 0,-116.34375 -24.5,-1.21875 0,25.71875 -11,0 -3.6874,7.34375 -17.1563,6.125 -13.4687,-3.6875 -6.0938,-8.5625 -9.8125,1.21875 0,-29.375 -20.8125,0 z m 0,151.8125 0,28.1875 105.3125,0 -1.25,-26.9375 -104.0625,-1.25 z"
       id="path3025-1"
       inkscape:connector-curvature="0" />
    <path
       style="fill:url(#linearGradient3883);fill-opacity:1;stroke:#cf0000;stroke-width:1px;stroke-linecap:butt;stroke-linejoin:miter;stroke-opacity:1"
       d="m 2072.7188,393.28125 0,860.59375 947.1874,0 0,-860.59375 -947.1874,0 z m 96.9687,84.84375 723.8125,0 0,694.375 -723.8125,0 0,-694.375 z m 239.6563,32.375 0,121.21875 -184.875,-3.6875 1.2187,34.28125 209.375,2.46875 0,140.8125 31.8437,1.21875 0,-23.28125 118.75,-2.4375 1.2188,29.375 25.7188,1.21875 1.2187,-148.125 208.1563,-3.6875 -2.4376,-28.15625 L 2645.6562,629.25 2640.75,512.9375 2409.3438,510.5 z m 71.0312,56.3125 85.6875,1.21875 4.9063,62.46875 -15.9063,1.21875 3.6563,30.59375 -15.9063,29.40625 40.4063,1.21875 4.9062,85.71875 -120,3.65625 -3.6875,-89.375 44.0937,-2.4375 -14.6874,-25.71875 0,-33.0625 -14.7188,-1.21875 1.25,-63.6875 z m -270.625,109 4.9062,453.0313 112.6563,-3.6876 -1.2187,-56.3124 -23.2813,-4.9063 -26.9375,-7.3437 -17.125,-11 -4.9062,-364.9063 -44.0938,-4.875 z m 624.4688,11 -42.8438,4.90625 4.875,346.50005 -14.6875,13.4687 -25.7187,12.25 -24.4688,6.125 2.4375,52.6563 118.7813,-7.3438 -18.375,-428.5625 z m -369.7813,242.4375 0,91.8438 -33.0625,2.4374 2.4688,86.9376 181.1874,-2.4376 -1.2187,-84.5 -29.375,-2.4374 -1.2187,-90.62505 -30.625,1.25 -2.4376,93.03125 -55.0937,-3.6562 -1.25,-89.37505 -29.375,-2.46875 z"
       id="path3813"
       inkscape:connector-curvature="0" />
    <path
       style="fill:#ff0000;fill-opacity:1;stroke:#ff0000;stroke-width:1px;stroke-linecap:butt;stroke-linejoin:miter;stroke-opacity:1"
       d="m 463.17902,1528.4147 88.47239,0 89.51325,-82.2273 -132.18817,0 -42.67492,32.2664 z"
       id="path3991"
       inkscape:connector-curvature="0" />
    <path
       style="fill:#ff0000;fill-opacity:1;stroke:#ff0000;stroke-width:1px;stroke-linecap:butt;stroke-linejoin:miter;stroke-opacity:1"
       d="m 670.30851,1560.6811 167.57713,2.0817 -1.04085,-84.309 -99.92177,1.0408 z"
       id="path3993"
       inkscape:connector-curvature="0" />
    <path
       style="fill:#ff0000;fill-opacity:1;stroke:#3f0000;stroke-width:1px;stroke-linecap:butt;stroke-linejoin:miter;stroke-opacity:1"
       d="m 542.28375,1707.4412 0,180.0673 -27.06215,-1.0408 -1.04085,-28.103 -32.2664,1.0408 -1.04085,26.0213 -13.53108,6.2451 -8.32681,13.5311 -2.0817,15.6128 5.20426,17.6945 8.32681,10.4085 12.49022,5.2042 1.04085,26.0213 5.20426,2.0817 23.93959,-1.0408 2.0817,-32.2664 24.98044,1.0408 2.08171,33.3073 4.16341,3.1225 30.1847,-3.1225 1.04085,-30.1847 49.96088,-2.0817 1.04085,29.1438 15.61278,4.1634 1.04085,29.1439 33.30725,-2.0817 3.12256,-24.9805 13.53107,-2.0817 3.12256,-29.1438 139.47413,-1.0409 2.0817,26.0213 15.61278,0 2.0817,28.103 31.22555,0 2.08171,-19.7762 14.57192,-1.0408 -1.04085,-36.4298 26.02129,2.0817 67.65536,60.3694 109.2894,-2.0817 35.389,-26.0213 2.0817,-31.2256 54.1243,0 2.0817,-61.4102 -24.9805,-5.2043 -62.4511,-1.0408 -1.0408,-26.0213 -59.3286,-2.0817 -3.1225,23.9396 -2.0817,4.1634 -141.55585,0 0,-24.9805 -63.49195,-1.0408 -1.04086,27.0621 -145.71924,2.0817 0,-30.1847 -63.49195,0 -2.08171,29.1439 -56.20599,-0.5205 1.56128,-175.3835 z"
       id="path3996"
       inkscape:connector-curvature="0"
       sodipodi:nodetypes="ccccccccccccccccccccccccccccccccccccccccccccccccccccccccccccc" />
    <path
       style="fill:#ff2b00;fill-opacity:1;stroke:#b70000;stroke-width:1px;stroke-linecap:butt;stroke-linejoin:miter;stroke-opacity:1"
       d="m 577.01876,1733.2953 33.1197,2.208 0,34.5917 22.81579,-2.208 0.73599,-28.7038 35.32768,0 0.73599,29.4398 26.49576,-0.736 0,-27.9678 28.70374,0 0.736,27.2318 28.70374,1.472 0.73599,-27.2318 33.1197,1.472 0.73599,25.0238 27.96775,0 -0.736,-27.9678 25.02378,1.472 2.20798,26.4958 28.70374,-0.736 -0.736,-23.5518 31.64771,1.472 1.47199,25.0238 28.70374,-2.208 0,-26.4958 33.85569,0 1.47199,27.2318 23.55179,0 2.94397,117.0229 -88.3192,0 0,-24.2878 -64.03142,-1.4719 -0.73599,27.2317 -144.99068,1.472 -0.736,-30.1757 -64.03141,-0.736 -2.20798,30.1757 -55.9355,-0.736 z"
       id="path3998"
       inkscape:connector-curvature="0" />
    <rect
       style="fill:#ff2b00;fill-opacity:1;stroke:none"
       id="rect4000"
       width="61.823437"
       height="82.431252"
       x="902.32782"
       y="1472.7537" />
    <rect
       style="fill:#ff2b00;fill-opacity:1;stroke:none"
       id="rect4002"
       width="89.791183"
       height="54.463505"
       x="1053.9424"
       y="1562.5448" />
    <rect
       style="fill:#ff2b00;fill-opacity:1;stroke:none"
       id="rect4004"
       width="32.383705"
       height="186.94231"
       x="1078.9662"
       y="1650.864" />
    <rect
       style="fill:#ff2b00;fill-opacity:1;stroke:none"
       id="rect4006"
       width="117.75893"
       height="94.207146"
       x="1056.8864"
       y="1434.4821" />
    <path
       sodipodi:type="arc"
       style="fill:#ff2b00;fill-opacity:1;stroke:none"
       id="path4008"
       sodipodi:cx="496.05948"
       sodipodi:cy="1602.2885"
       sodipodi:rx="41.215626"
       sodipodi:ry="44.159599"
       d="m 537.2751,1602.2885 a 41.215626,44.159599 0 1 1 -82.43125,0 41.215626,44.159599 0 1 1 82.43125,0 z" />
    <rect
       style="fill:#ff2b00;fill-opacity:1;stroke:none"
       id="rect4010"
       width="27.967747"
       height="120.7029"
       x="1987.1819"
       y="1681.7758" />
    <rect
       style="fill:#ff2b00;fill-opacity:1;stroke:none"
       id="rect4012"
       width="25.023773"
       height="201.66217"
       x="2016.6217"
       y="1631.7283" />
    <rect
       style="fill:#ff2b00;fill-opacity:1;stroke:none"
       id="rect4014"
       width="30.911718"
       height="123.64687"
       x="2041.6455"
       y="1678.8318" />
    <rect
       style="fill:#ff2b00;fill-opacity:1;stroke:none"
       id="rect4016"
       width="29.439732"
       height="61.823437"
       x="2075.5012"
       y="1711.2155" />
    <rect
       style="fill:#ff2b00;fill-opacity:1;stroke:none"
       id="rect4018"
       width="27.967747"
       height="326.78104"
       x="2106.4128"
       y="1686.1918" />
    <rect
       style="fill:#ff2b00;fill-opacity:1;stroke:none"
       id="rect4020"
       width="29.439732"
       height="60.351452"
       x="2134.3806"
       y="1712.6875" />
    <rect
       style="fill:#ff2b00;fill-opacity:1;stroke:none"
       id="rect4022"
       width="26.49576"
       height="114.81496"
       x="2168.2363"
       y="1686.1918" />
    <rect
       style="fill:#ff2b00;fill-opacity:1;stroke:none"
       id="rect4024"
       width="29.439732"
       height="381.24454"
       x="2194.7322"
       y="1630.2562" />
    <rect
       style="fill:#ff2b00;fill-opacity:1;stroke:none"
       id="rect4026"
       width="25.023773"
       height="120.7029"
       x="2225.6438"
       y="1683.2478" />
    <rect
       style="fill:#ff2b00;fill-opacity:1;stroke:none"
       id="rect4028"
       width="27.967747"
       height="117.75893"
       x="2076.9731"
       y="1836.3344" />
    <rect
       style="fill:#ff2b00;fill-opacity:1;stroke:none"
       id="rect4030"
       width="27.967747"
       height="117.75893"
       x="2138.7966"
       y="1836.3344" />
    <rect
       style="fill:#ff2b00;fill-opacity:1;stroke:none"
       id="rect4032"
       width="22.0798"
       height="60.351452"
       x="2169.7083"
       y="1865.774" />
    <rect
       style="fill:#ff2b00;fill-opacity:1;stroke:none"
       id="rect4034"
       width="27.967747"
       height="58.879463"
       x="2225.6438"
       y="1867.2461" />
    <rect
       style="fill:#ff2b00;fill-opacity:1;stroke:none"
       id="rect4036"
       width="54.463505"
       height="120.7029"
       x="2255.0835"
       y="1836.3344" />
    <rect
       style="fill:#ff2b00;fill-opacity:1;stroke:none"
       id="rect4038"
       width="23.551786"
       height="178.11038"
       x="2272.7473"
       y="1805.4226" />
    <rect
       style="fill:#ff2b00;fill-opacity:1;stroke:none"
       id="rect4040"
       width="239.93413"
       height="57.407272"
       x="2313.9629"
       y="1865.774" />
    <rect
       style="fill:#ff2b00;fill-opacity:1;stroke:none"
       id="rect4042"
       width="27.967747"
       height="104.51105"
       x="2556.8408"
       y="1864.3021" />
    <rect
       style="fill:#ff2b00;fill-opacity:1;stroke:none"
       id="rect4045"
       width="263.4856"
       height="117.75893"
       x="2590.6965"
       y="1864.3021" />
    <rect
       style="fill:#ff2b00;fill-opacity:1;stroke:none"
       id="rect4047"
       width="216.38203"
       height="54.463505"
       x="2612.7764"
       y="1831.9185" />
    <rect
       style="fill:#ff2b00;fill-opacity:1;stroke:none"
       id="rect4049"
       width="95.679131"
       height="60.351452"
       x="1978.35"
       y="1864.3021"
       ry="1.4719867" />
    <rect
       style="fill:#ff2b00;fill-opacity:1;stroke:none"
       id="rect4051"
       width="79.487274"
       height="22.0798"
       x="2923.3655"
       y="1932.0135"
       ry="1.4719867" />
    <rect
       style="fill:#ff2b00;fill-opacity:1;stroke:none"
       id="rect4053"
       width="44.159599"
       height="20.607813"
       x="2942.5012"
       y="1917.2936"
       ry="1.4719867" />
    <rect
       style="fill:#ff2b00;fill-opacity:1;stroke:none"
       id="rect4055"
       width="57.407478"
       height="16.191853"
       x="2450.8577"
       y="1970.2852"
       ry="1.4719867" />
    <rect
       style="fill:#ff2b00;fill-opacity:1;stroke:none"
       id="rect4057"
       width="181.05435"
       height="35.327679"
       x="2340.4587"
       y="1982.061"
       ry="1.4719867" />
    <rect
       style="fill:#ff2b00;fill-opacity:1;stroke:none"
       id="rect4059"
       width="26.49576"
       height="61.823437"
       x="1747.2482"
       y="1680.3038"
       ry="1.4719867" />
    <rect
       style="fill:#ff2b00;fill-opacity:1;stroke:none"
       id="rect4061"
       width="23.551786"
       height="63.295425"
       x="1748.7201"
       y="1789.2308"
       ry="1.4719867" />
    <rect
       style="fill:#ff2b00;fill-opacity:1;stroke:none"
       id="rect4063"
       width="25.023773"
       height="61.823437"
       x="1748.7201"
       y="1892.2699"
       ry="1.4719867" />
    <rect
       style="fill:#ff2b00;fill-opacity:1;stroke:none"
       id="rect4065"
       width="33.855694"
       height="58.879463"
       x="1860.5911"
       y="1686.1918"
       ry="1.4719867" />
    <rect
       style="fill:#ff2b00;fill-opacity:1;stroke:none"
       id="rect4067"
       width="35.327679"
       height="63.295425"
       x="1860.5911"
       y="1787.7588"
       ry="1.4719867" />
    <rect
       style="fill:#ff2b00;fill-opacity:1;stroke:none"
       id="rect4071"
       width="25.023773"
       height="125.11887"
       x="1205.557"
       y="1441.8419"
       ry="1.4719867" />
    <path
       style="fill:#ff2b00;fill-opacity:1;stroke:none"
       d="m 1429.299,1606.7045 -14.7199,-11.7759 25.0238,-27.9678 13.2479,13.2479 z"
       id="path4073"
       inkscape:connector-curvature="0" />
    <path
       style="fill:#ff2b00;fill-opacity:1;stroke:none"
       d="m 1514.6742,1642.0321 -25.0237,29.4398 16.1918,13.2478 23.5518,-32.3837 z"
       id="path4075"
       inkscape:connector-curvature="0" />
    <path
       style="fill:#ff2b00;fill-opacity:1;stroke:none"
       d="m 1984.974,1771.199 0.368,-66.2394 -9.9359,2.5759 -6.624,7.36 c 0,0 -3.68,5.8879 -4.048,7.3599 -0.3679,1.472 -2.5759,8.8319 -2.5759,8.8319 l 1.84,11.4079 2.5759,8.4639 4.416,6.624 6.2559,7.7279 z"
       id="path4077"
       inkscape:connector-curvature="0" />
    <path
       style="fill:#ff2b00;fill-opacity:1;stroke:none"
       d="m 2253.2435,1774.8789 9.1999,-6.6239 6.256,-8.8319 4.048,-8.464 2.2079,-9.9359 -0.368,-12.8799 -3.6799,-9.9359 -7.728,-6.6239 -9.1999,-4.416 z"
       id="path4079"
       inkscape:connector-curvature="0" />
    <path
       style="fill:#ff2b00;fill-opacity:1;stroke:none"
       d="m 2519.6731,1983.533 10.6719,2.944 8.8319,6.6239 10.6719,10.6719 3.68,7.728 -34.5917,0.368 z"
       id="path4081"
       inkscape:connector-curvature="0" />
    <path
       style="fill:#ff2b00;fill-opacity:1;stroke:none"
       d="m 2944.7092,1924.6536 -4.4159,0 -16.5599,7.7279 1.104,7.7279 28.3358,-1.104 z"
       id="path4083"
       inkscape:connector-curvature="0" />
    <path
       style="fill:#ff2b00;fill-opacity:1;stroke:none"
       d="m 2986.2929,1920.2376 0.736,6.2559 16.1918,6.992 0,27.5997 -50.7835,-5.5199 6.9919,-32.7517 z"
       id="path4085"
       inkscape:connector-curvature="0" />
    <path
       style="fill:#ff2b00;fill-opacity:1;stroke:none"
       d="m 2888.0378,2009.2928 24.2877,-24.6558 117.023,-1.104 2.576,26.8638 z"
       id="path4087"
       inkscape:connector-curvature="0" />
    <path
       style="fill:#ff2b00;fill-opacity:1;stroke:none"
       d="m 1979.086,1865.4061 -10.3039,2.576 -9.5679,8.8319 -4.784,8.8319 -1.4719,9.1999 1.1039,8.464 2.944,8.0959 8.8319,8.8319 13.9839,2.944 z"
       id="path4089"
       inkscape:connector-curvature="0" />
    <path
       style="fill:#ff1200;fill-opacity:1;stroke:none"
       d="m 2816.6464,1683.2478 -106.719,-2.208 0,-24.2878 -33.8557,-33.1197 18.3998,-27.2318 -30.1757,-16.9278 -30.1757,-7.3599 -21.3438,-5.888 -19.8719,53.7275 -80.2232,2.944 -27.2318,-49.3115 -16.9278,8.0959 -29.4398,16.9278 -20.6078,18.3999 -4.4159,7.3599 -90.5272,-0.736 16.1918,-25.7598 16.9279,-18.3998 c 0,0 24.2878,-26.4958 30.1757,-28.7037 5.888,-2.208 16.1919,-12.5119 16.1919,-12.5119 l 57.4074,-29.4398 92.7352,-17.6638 107.455,10.3039 79.4873,44.8956 66.9754,69.1834 z"
       id="path4093"
       inkscape:connector-curvature="0" />
    <path
       style="fill:#ff1200;fill-opacity:1;stroke:none"
       d="m 2453.0657,1681.7758 63.2954,57.4074 -14.7198,22.0798 -0.736,6.624 -139.8388,-47.8396 -8.0959,19.8718 -6.6239,26.4958 -2.208,32.3837 -13.9839,-4.416 -12.5119,-15.4558 -3.6799,-22.8158 2.208,-42.6876 1.4719,-15.4559 8.832,-9.5679 10.3039,-2.944 27.2317,-1.4719 62.5595,-1.472 z"
       id="path4095"
       inkscape:connector-curvature="0" />
    <path
       style="fill:#ff1200;fill-opacity:1;stroke:none"
       d="m 2652.0902,1793.8319 99.9218,29.1438 10.4085,-16.6536 7.2859,-31.2256 1.0409,-14.5719 16.6536,13.5311 15.6128,18.7353 11.4494,27.0622 4.1634,10.4085 -186.3125,-1.0409 5.2043,-14.5719 7.2859,-15.6128 z"
       id="path4097"
       inkscape:connector-curvature="0" />
    <path
       style="fill:#ff1200;fill-opacity:1;stroke:#000000;stroke-width:1px;stroke-linecap:butt;stroke-linejoin:miter;stroke-opacity:1"
       d="m 1771.5296,1741.7893 -29.1438,-1.0409 -1.0409,-32.2664 -26.0213,10.4085 c 0,0 -7.2859,24.9805 -7.2859,29.1439 0,4.1634 -1.0409,37.4707 -1.0409,37.4707 l 1.0409,77.023 3.1225,47.8792 12.4903,18.7353 22.8987,1.0408 0,-38.5115 28.103,-1.0408 -3.1226,-38.5115 -26.0213,1.0408 1.0409,-67.6553 28.103,1.0408 z"
       id="path4099"
       inkscape:connector-curvature="0" />
    <path
       style="fill:#ff1200;fill-opacity:1;stroke:#000000;stroke-width:1px;stroke-linecap:butt;stroke-linejoin:miter;stroke-opacity:1"
       d="m 1896.4318,1703.2778 0,42.6749 -33.3072,0 1.0408,39.5524 31.2256,1.0408 0,63.492 -33.3073,1.0408 0,47.8792 17.6945,-13.5311 15.6128,-16.6536 13.5311,-18.7353 11.4493,-20.8171 8.3268,-28.103 -1.0408,-32.2664 -1.0409,-64.5328 z"
       id="path4101"
       inkscape:connector-curvature="0" />
  </g>
  <g
     style="display:inline;filter:url(#filter3910)"
     inkscape:label="MultMask"
     id="g3899"
     inkscape:groupmode="layer"
     sodipodi:insensitive="true">
    <path
       style="fill:#7b413a;fill-opacity:1;stroke:none"
       d="m 232.03125,-84.625 0,1367.9375 1011.24995,0 0,-1367.9375 -1011.24995,0 z m 51.40625,69.9375 931.1875,0 0,1273.4063 -931.1875,0 0,-1273.4063 z m 412.65625,276.375 -185.28125,5.1875 3.46875,116.03125 181.8125,1.71875 0,-122.9375 z m 64.0625,6.9375 -1.71875,114.28125 185.28125,0 L 942,268.625 l -181.84375,0 z m -204.3125,183.53125 0,114.28125 348.0625,0 0,-114.28125 -348.0625,0 z m 342.84375,117.75 -353.25,1.75 -25.96875,29.4375 3.46875,323.78125 65.8125,60.625 95.21875,38.0938 86.59375,0 84.84375,-27.7188 76.1875,-69.25 8.65625,-323.8125 -41.5625,-32.90625 z m -193.9375,60.625 50.21875,0 -3.46875,32.875 76.1875,32.90625 46.78125,86.59375 27.6875,3.46875 0,53.65625 L 869.25,843.5 845.03125,919.6875 758.4375,961.25 l -3.46875,29.4375 -50.21875,0 0,-24.25 -71,-20.78125 -57.125,-105.625 -29.4375,-6.90625 3.46875,-50.21875 29.4375,0 L 611.25,701.5 703.03125,659.96875 704.75,630.53125 z M 465.8125,666.875 432.90625,685.9375 436.375,729.21875 469.25,748.25 465.8125,666.875 z m 533.3125,6.9375 -1.71875,71 31.15625,-29.4375 -5.1875,-31.1875 -24.25,-10.375 z m -540.25,193.9375 -27.71875,3.46875 -1.71875,209.50005 31.15625,0 L 458.875,867.75 z m 538.53125,1.71875 -1.75,211.25005 27.71875,0 1.7188,-209.50005 -27.68755,-1.75 z"
       id="path3901"
       inkscape:connector-curvature="0" />
    <path
       style="fill:#7b413a;fill-opacity:1;stroke:#000000;stroke-width:1px;stroke-linecap:butt;stroke-linejoin:miter;stroke-opacity:1"
       d="m 1389.4323,213.0492 84.485,1.22442 3.6733,23.264 57.5478,1.22442 3.6732,-25.71284 53.8746,-1.22442 4.8976,26.93726 56.3234,-1.22442 c 0,0 -1.2244,-26.93726 3.6733,-26.93726 4.8976,0 55.0989,0 55.0989,0 l 2.4488,25.71284 61.2211,2.44884 -1.2244,-25.71284 90.6071,1.22442 -3.6733,57.54778 -25.7128,31.83494 -42.8547,0 -9.7954,-13.46863 -13.4686,-11.01978 -19.5908,-12.24421 -23.264,-9.79537 -26.9372,-2.44884 -31.835,7.34652 -23.264,13.46863 -23.2639,18.36632 -6.1222,9.79536 -186.1119,-1.22442 -42.8548,-33.05936 z"
       id="path3025"
       inkscape:connector-curvature="0" />
    <path
       style="fill:#7b413a;fill-opacity:1;stroke:#000000;stroke-width:1px;stroke-linecap:butt;stroke-linejoin:miter;stroke-opacity:1"
       d="m 1419.0938,753.03125 0,57.53125 57.5624,1.21875 0,23.28125 9.7813,2.4375 8.5937,7.34375 14.6876,3.6875 12.25,-4.90625 2.4374,-4.90625 9.7813,-2.4375 -1.2187,-26.9375 22.0312,-1.21875 3.6875,123.65625 -143.25,1.21875 2.4375,25.71875 138.375,1.21875 0,26.9375 -139.5938,4.90625 2.4376,31.84375 412.625,-1.2188 0,-31.8437 -140.7813,-1.21875 -1.25,-26.9375 143.2813,-2.46875 -3.6876,-33.0625 -138.3437,2.46875 L 1688.4688,813 l 26.9374,0 2.4688,25.71875 9.7812,0 7.3438,6.125 13.4688,4.90625 11.0312,-2.4375 3.6562,-7.375 11.0313,-1.21875 -1.2187,-26.9375 31.8124,0 20.8438,1.21875 -1.25,-53.84375 -405.2812,-6.125 z m 153.0624,56.3125 20.8126,0 0,29.375 9.8124,-1.21875 6.0938,8.5625 13.4688,3.6875 17.1562,-6.125 3.6875,-7.34375 11,0 0,-25.71875 24.5,1.21875 0,116.34375 -106.5313,2.4375 0,-121.21875 z m 0,151.8125 104.0626,1.25 1.25,26.9375 -105.3126,0 0,-28.1875 z"
       id="path3815"
       inkscape:connector-curvature="0" />
    <path
       style="fill:#7b413a;fill-opacity:1;stroke:#000000;stroke-width:1px;stroke-linecap:butt;stroke-linejoin:miter;stroke-opacity:1"
       d="m 1474.2027,657.51396 -2.4488,72.24084 12.2442,9.79536 28.1617,1.22442 25.7128,-4.89768 19.5907,-12.24421 9.7954,-9.79537 -2.4488,-51.42567 -25.7129,0 -2.4488,14.69305 -26.9373,0 -1.2244,-18.36631 z"
       id="path3822"
       inkscape:connector-curvature="0" />
    <path
       style="fill:#7b413a;fill-opacity:1;stroke:#000000;stroke-width:1px;stroke-linecap:butt;stroke-linejoin:miter;stroke-opacity:1"
       d="m 1624.8065,635.47439 -3.6733,71.01641 22.0396,15.91747 28.1617,12.24421 31.8349,6.1221 24.4884,-6.1221 18.3664,-9.79537 0,-89.38272 -26.9373,1.22442 -2.4488,14.69305 -58.7722,0 -2.4489,-15.91747 z"
       id="path3824"
       inkscape:connector-curvature="0" />
    <path
       style="fill:#7b413a;fill-opacity:1;stroke:#000000;stroke-width:1px;stroke-linecap:butt;stroke-linejoin:miter;stroke-opacity:1"
       d="m 1384.82,601.1906 1.2244,486.0951 -30.6105,-3.6733 -1.2244,-61.221 -26.9373,0 0,-179.98988 30.6105,-34.28379 -1.2244,-209.37597 z"
       id="path3826"
       inkscape:connector-curvature="0" />
    <path
       style="fill:#7b413a;fill-opacity:1;stroke:#000000;stroke-width:1px;stroke-linecap:butt;stroke-linejoin:miter;stroke-opacity:1"
       d="m 1862.3441,598.74176 34.2838,3.67327 -1.2244,213.04923 28.1617,26.93726 -3.6733,183.66308 -22.0396,0 0,59.9967 -29.3861,-4.8977 z"
       id="path3828"
       inkscape:connector-curvature="0" />
    <path
       style="fill:#7b413a;fill-opacity:1;stroke:#000000;stroke-width:1px;stroke-linecap:butt;stroke-linejoin:miter;stroke-opacity:1;display:inline;filter:url(#filter3910-8)"
       d="m 1330.0066,487.60493 -1.2244,-68.56755 61.221,-1.22443 28.1617,-53.87451 177.541,-2.44885 2.4489,28.16168 13.4686,26.93726 23.264,29.38609 33.0593,17.14191 26.9373,6.12209 31.8349,-3.67326 34.2838,-14.69305 22.0396,-19.59073 19.5907,-30.61052 12.2442,-26.93726 0,-14.69305 18.3664,2.44884 31.8349,61.22105 52.6501,1.22442 2.4488,55.09893 -13.4686,-15.91746 -22.0396,-12.24422 -25.7128,6.1221 -14.693,17.14189 -9.7954,30.61053 -4.8977,34.28378 -45.3036,0 -39.1814,-59.99662 -232.64,6.1221 -29.3861,58.77221 -67.3432,-6.12211 -1.2244,-28.16168 -1.2244,-26.93726 -12.2442,-20.81515 -22.0396,-12.24421 -20.8151,3.67327 -20.8152,15.91746 z"
       id="path3813-7-4"
       inkscape:connector-curvature="0" />
    <path
       style="fill:url(#linearGradient3926);fill-opacity:1;stroke:#fff900;stroke-width:1px;stroke-linecap:butt;stroke-linejoin:miter;stroke-opacity:1"
       d="m 2435.0844,751.44657 -32.9002,0.86579 0,26.83969 -5.1948,4.32898 -6.9264,6.92637 -1.7316,10.38956 1.7316,9.52376 4.329,6.06057 6.9264,3.46319 0,15.58433 -6.0606,6.92637 -4.329,6.06057 -2.5974,10.38956 1.7316,8.65796 6.0606,12.12115 2.5974,23.3765 -6.0606,6.92637 -4.329,9.52376 1.7316,12.98695 6.9264,9.5238 10.3895,1.7316 0.8658,13.8527 9.5238,15.5843 11.2553,12.1212 14.7186,9.5237 14.7185,5.1948 6.0606,0 0.8658,-67.5321 28.5713,2.5974 0.8658,70.1295 19.0475,1.7316 20.7791,0.8658 18.1817,-4.329 0,-68.3979 31.1687,-2.5974 1.7316,64.9347 23.3765,-8.6579 15.5843,-11.2554 19.0475,-12.9869 0.8658,-24.2423 8.658,-7.7922 4.329,-8.65797 -0.8658,-10.38955 -10.3896,-12.12115 -1.7316,-23.3765 7.7922,-3.46319 5.1948,-8.65796 0,-9.52376 -7.7922,-11.25535 -4.329,-6.06057 0,-25.97389 6.9264,-6.06058 3.4632,-12.12115 -4.329,-7.79216 -8.658,-4.32898 -0.8658,-26.83969 -28.5712,-1.73159 -1.7316,58.00835 -24.2423,-1.73159 -3.4632,-28.57128 -115.1509,3.46318 -1.7316,23.3765 -32.9003,-2.59738 z"
       id="path3885"
       inkscape:connector-curvature="0" />
    <path
       style="fill:url(#linearGradient3948);fill-opacity:1;stroke:#000000;stroke-width:1px;stroke-linecap:butt;stroke-linejoin:miter;stroke-opacity:1"
       d="m 2264.5225,575.68992 141.1248,-0.8658 1.7316,-58.00835 -158.4407,1.73159 z"
       id="path3887"
       inkscape:connector-curvature="0" />
    <path
       style="fill:url(#linearGradient3946);fill-opacity:1;stroke:#000000;stroke-width:1px;stroke-linecap:butt;stroke-linejoin:miter;stroke-opacity:1"
       d="m 2789.1951,574.82412 5.1948,-51.94778 -153.246,-0.86579 1.7316,54.54516 z"
       id="path3889"
       inkscape:connector-curvature="0" />
    <path
       style="fill:url(#linearGradient3938);fill-opacity:1;stroke:#000000;stroke-width:1px;stroke-linecap:butt;stroke-linejoin:miter;stroke-opacity:1"
       d="m 2507.8113,690.84083 35.4977,0.86579 14.7185,-25.97389 0,-32.03446 12.9869,-4.32898 -2.5974,-46.753 -88.3112,-3.46319 0,52.81358 13.8528,0 0,36.36344 z"
       id="path3891"
       inkscape:connector-curvature="0" />
    <rect
       style="fill:#732e00;fill-opacity:1;stroke:none"
       id="rect4103"
       width="75.07132"
       height="493.11551"
       x="329.72501"
       y="1528.6892"
       ry="1.4719867" />
    <path
       style="fill:#732e00;fill-opacity:1;stroke:#b70000;stroke-width:4;stroke-linecap:butt;stroke-linejoin:miter;stroke-miterlimit:4;stroke-opacity:1;stroke-dasharray:none"
       d="m 576.63186,1597.1109 62.4511,-2.0817 102.00347,-116.5754 96.79921,0 -1.04085,94.7175 9.36766,13.5311 169.65885,3.1225 2.0817,36.4298 35.3889,36.4299 -2.0817,75.9821 -57.2468,6.2451 2.0817,140.515 55.1651,0 4.1634,-28.103 58.2877,4.1634 3.1226,23.9396 61.4103,1.0409 0,-21.8579 530.8343,-5.2043 -2.0817,-88.4724 -26.0213,3.1226 -117.6162,-102.0035 2.0817,-39.5523 -12.4902,-15.6128 14.5719,-21.8579 -66.6145,-61.4103 -17.6945,15.6128 -14.5719,-13.5311 -36.4298,7.286 -64.5328,-63.492 -26.0213,-10.4085 -102.0035,2.0817 -4.1634,62.4511 88.4724,5.2043 55.1651,54.1243 -4.1634,30.1847 21.8579,16.6536 -18.7353,17.6945 62.4511,64.5328 19.7762,-17.6945 24.9804,22.8988 31.2256,-6.2452 41.634,52.0426 -379.9108,3.1226 -1.0409,-29.1439 -34.3481,-5.2042 -1.0409,-90.5541 33.3073,-35.389 2.0817,-19.7762 30.1847,0 -1.0409,-181.1082 -32.2664,-2.0817 -1.0408,115.5346 -115.5345,-2.0817 -1.0409,-113.4529 -384.07429,-2.0817 -121.77965,117.6163 -120.7388,2.0817 -3.12255,118.6571 28.10299,26.0213 3.12256,156.1277 -36.42981,37.4707 5.20426,111.3711 20.81703,1.0409 3.12256,32.2664 95.75836,-2.0817 -4.16341,-24.9805 -1.04085,-34.3481 -23.93959,-2.0817 -2.08171,30.1847 -31.22555,0 -1.04085,-23.9396 -10.40852,-6.2451 -10.40851,-9.3676 -5.20426,-10.4086 -2.08171,-14.5719 3.12256,-14.5719 7.28596,-11.4494 14.57192,-8.3268 1.04086,-22.8987 32.2664,1.0408 2.0817,27.0622 24.98044,-1.0409 4.16341,-200.8844 30.1847,-31.2255 z"
       id="path4105"
       inkscape:connector-curvature="0" />
    <path
       style="fill:#732e00;fill-opacity:1;stroke:#d10000;stroke-width:3;stroke-linecap:butt;stroke-linejoin:miter;stroke-miterlimit:4;stroke-opacity:1;stroke-dasharray:none"
       d="m 1774.4799,1982.797 0.736,-328.989 89.0552,5.888 -2.944,238.4618 16.1918,-11.7759 14.7199,-14.7199 13.9839,-15.4558 13.2479,-24.2878 9.5679,-22.8158 0,-26.4957 -1.472,-126.5909 87.5832,-1.472 0.736,24.2878 -30.9117,2.208 0.736,21.3438 -8.832,2.208 -9.5679,8.8319 -5.1519,11.0399 1.472,14.7198 5.1519,18.3999 9.5679,12.5119 6.624,4.4159 1.472,27.9678 27.9677,0 0.736,31.6477 28.7037,-1.472 0,-27.9677 31.6477,-2.944 0.736,-28.7038 28.7038,0 0,61.8235 -28.7038,1.472 -0.736,26.4957 -95.6791,1.472 -11.7759,2.208 -9.5679,9.5679 -5.8879,12.5119 0,17.6638 13.9838,13.9839 12.5119,5.152 51.5195,-0.736 44.8956,0.736 0,27.2317 29.4398,1.472 0,32.3837 -34.5917,2.944 0.736,23.5518 -80.9593,-0.736 -2.944,-25.7598 -88.3192,0.736 -0.7359,27.9677 -84.6393,-2.2079 -9.5679,-33.8557 z"
       id="path4107"
       inkscape:connector-curvature="0" />
    <path
       style="fill:#732e00;fill-opacity:1;stroke:#800000;stroke-width:3;stroke-linecap:butt;stroke-linejoin:miter;stroke-miterlimit:4;stroke-opacity:1;stroke-dasharray:none"
       d="m 2043.1174,1654.544 0.736,22.8158 30.9117,0 1.472,31.6477 28.7038,-0.736 0.736,-24.2877 32.3837,0.7359 0,25.7598 27.2317,-0.736 2.208,-25.7597 27.2318,0.7359 -1.472,-33.8556 -148.6707,0 z"
       id="path4109"
       inkscape:connector-curvature="0" />
    <path
       style="fill:#732e00;fill-opacity:1;stroke:#800000;stroke-width:3;stroke-linecap:butt;stroke-linejoin:miter;stroke-miterlimit:4;stroke-opacity:1;stroke-dasharray:none"
       d="m 2164.5563,1775.2469 1.472,26.4958 27.2318,-0.736 -0.736,64.7674 -24.2878,-2.944 0,-27.2317 -30.9117,0 0,-60.3515 z"
       id="path4111"
       inkscape:connector-curvature="0" />
    <path
       style="fill:#732e00;fill-opacity:1;stroke:#800000;stroke-width:3;stroke-linecap:butt;stroke-linejoin:miter;stroke-miterlimit:4;stroke-opacity:1;stroke-dasharray:none"
       d="m 2170.4443,1927.5975 -0.736,26.4958 -33.8557,0 0,33.1197 25.7598,2.944 1.4719,22.0798 31.6478,0.736 -2.208,-86.8472 z"
       id="path4113"
       inkscape:connector-curvature="0" />
    <path
       style="fill:#732e00;fill-opacity:1;stroke:#770000;stroke-width:3;stroke-linecap:butt;stroke-linejoin:miter;stroke-miterlimit:4;stroke-opacity:1;stroke-dasharray:none"
       d="m 2224.9078,1926.8615 0.736,84.6393 27.9677,-0.736 0,-23.5518 19.8718,-1.472 0,-26.4958 -19.1358,-0.7359 0,-30.1758 z"
       id="path4115"
       inkscape:connector-curvature="0" />
    <path
       style="fill:#732e00;fill-opacity:1;stroke:#9a0000;stroke-width:3;stroke-linecap:butt;stroke-linejoin:miter;stroke-miterlimit:4;stroke-opacity:1;stroke-dasharray:none"
       d="m 2227.1158,1659.696 -0.736,22.8158 26.4957,0 0.736,22.0798 8.8319,6.6239 8.832,8.8319 5.1519,10.3039 -1.472,18.3999 -5.1519,13.2478 -13.2479,11.7759 -2.944,3.68 -1.472,25.7598 -27.2317,2.9439 0.736,61.0875 26.4957,-1.472 2.944,-28.7037 17.6638,-0.736 0.736,-31.6477 25.0238,2.2079 0,25.0238 11.0399,0.736 1.472,31.6477 302.4933,-2.208 -0.736,-31.6477 20.6078,0 7.3599,-22.0798 13.9839,-23.5518 20.6078,-17.6638 27.2317,-11.7759 34.5917,-3.68 34.5917,8.832 23.5518,21.3438 13.9839,25.7597 10.3039,21.3438 12.5119,1.472 -2.208,2.944 0.736,28.7037 23.5518,0 0.736,119.2309 -264.2216,1.472 -3.68,-11.7759 -30.9117,-2.9439 -0.736,-43.4236 -243.6138,1.472 -1.472,31.6477 -12.5119,1.4719 -1.472,26.4958 41.2157,0.736 2.2079,-7.3599 4.416,2.2079 105.247,-0.7359 0.736,-12.5119 57.4075,1.472 0,11.7758 10.3039,0 10.3039,2.208 9.5679,6.624 11.0399,12.5119 6.624,8.8319 334.8769,-0.736 22.8158,-26.4958 118.495,0 -27.9678,-23.5518 -44.1596,-5.1519 -39.7436,-0.736 -16.1919,-11.0399 -11.7759,-14.7199 -3.6799,-133.9508 -5.152,-14.7198 -38.2716,-86.1112 -26.4958,-9.568 -108.191,-4.4159 -2.208,-23.5518 -5.8879,-8.8319 -24.2878,-23.5518 -384.9245,1.472 -29.4398,31.6477 z"
       id="path4117"
       inkscape:connector-curvature="0" />
  </g>
  <g
     inkscape:groupmode="layer"
     id="layer4"
     inkscape:label="MoreStuff"
     style="display:inline;filter:url(#filter3967)"
     sodipodi:insensitive="true">
    <rect
       style="fill:#972e28;fill-opacity:1;stroke:#fff900;stroke-width:3.51900005;stroke-miterlimit:4;stroke-opacity:1;stroke-dasharray:none"
       id="rect3953"
       width="269.26266"
       height="33.766056"
       x="2224.2307"
       y="628.78491" />
    <rect
       style="fill:#972e28;fill-opacity:1;stroke:#fff900;stroke-width:3.51900005;stroke-miterlimit:4;stroke-opacity:1;stroke-dasharray:none"
       id="rect3955"
       width="263.20209"
       height="30.302872"
       x="2557.5623"
       y="632.24811" />
    <rect
       style="fill:#972e28;fill-opacity:1;stroke:#fff900;stroke-width:3.45727968;stroke-miterlimit:4;stroke-opacity:1;stroke-dasharray:none"
       id="rect3957"
       width="116.07843"
       height="86.64135"
       x="2466.6228"
       y="694.55457" />
    <rect
       style="fill:#972e28;fill-opacity:1;stroke:#fff900;stroke-width:3.51900005;stroke-miterlimit:4;stroke-opacity:1;stroke-dasharray:none"
       id="rect3959"
       width="155.84334"
       height="51.081982"
       x="2249.3389"
       y="575.97137" />
    <rect
       style="fill:#972e28;fill-opacity:1;stroke:#fff900;stroke-width:3.51900005;stroke-miterlimit:4;stroke-opacity:1;stroke-dasharray:none"
       id="rect3961"
       width="147.18538"
       height="54.545166"
       x="2645.0078"
       y="576.83716" />
    <rect
       style="fill:#972e28;fill-opacity:1;stroke:#fff900;stroke-width:3.51900005;stroke-miterlimit:4;stroke-opacity:1;stroke-dasharray:none"
       id="rect3963"
       width="29.437075"
       height="176.62245"
       x="2464.9221"
       y="932.67944" />
    <rect
       style="fill:#972e28;fill-opacity:1;stroke:#fff900;stroke-width:3.51900005;stroke-miterlimit:4;stroke-opacity:1;stroke-dasharray:none"
       id="rect3965"
       width="29.437075"
       height="174.89085"
       x="2554.9648"
       y="934.41101" />
    <rect
       style="fill:#972e28;fill-opacity:1;stroke:#fff900;stroke-width:3.51900005;stroke-miterlimit:4;stroke-opacity:1;stroke-dasharray:none"
       id="rect3971"
       width="19.590734"
       height="135.91072"
       x="2229.6704"
       y="696.69543" />
    <rect
       style="fill:#972e28;fill-opacity:1;stroke:#fff900;stroke-width:3.51900005;stroke-miterlimit:4;stroke-opacity:1;stroke-dasharray:none"
       id="rect3975"
       width="15.917472"
       height="72.240829"
       x="2233.3438"
       y="881.58295" />
    <rect
       style="fill:#972e28;fill-opacity:1;stroke:#fff900;stroke-width:3.51900005;stroke-miterlimit:4;stroke-opacity:1;stroke-dasharray:none"
       id="rect3977"
       width="79.587357"
       height="22.039576"
       x="2232.1194"
       y="1086.0613" />
    <rect
       style="fill:#3d5424;fill-opacity:1;stroke:#fff900;stroke-width:3.51900005;stroke-miterlimit:4;stroke-opacity:1;stroke-dasharray:none"
       id="rect3981"
       width="51.425526"
       height="296.31033"
       x="3003.5044"
       y="745.67224" />
    <path
       style="fill:url(#linearGradient3993);fill-opacity:1;stroke:#5b3056;stroke-width:15.39999962;stroke-linecap:butt;stroke-linejoin:miter;stroke-miterlimit:4;stroke-opacity:1;stroke-dasharray:none"
       d="m 2432.9243,749.34551 -29.3861,2.44884 -20.8152,-1.22442 -24.4884,6.12211 -18.3663,9.79536 -17.1419,19.59074 -6.1221,28.16168 0,57.54778 0,66.11873 4.8977,35.5082 13.4686,23.264 25.7129,17.14187 37.957,12.2442 33.0594,0 -1.2244,61.2211 -17.1419,0 -52.6501,-8.571 -37.9571,-9.7953 -36.7326,-9.7954 -25.7129,-12.2442 -3.6732,-276.71913 -2.4489,-106.52462 178.7655,1.22442 z"
       id="path3983"
       inkscape:connector-curvature="0" />
    <path
       style="fill:#3d5424;fill-opacity:1;stroke:#5b3056;stroke-width:15;stroke-linecap:butt;stroke-linejoin:miter;stroke-miterlimit:4;stroke-opacity:1;stroke-dasharray:none"
       d="m 2614.1386,664.86047 0,86.93388 36.7326,1.22442 33.0594,4.89769 20.8151,8.57094 19.5908,17.1419 8.5709,26.93726 1.2244,35.5082 -1.2244,61.22105 -1.2244,48.97683 -13.4686,28.16168 -23.264,23.26398 -31.835,12.2442 -34.2838,4.8977 -15.9174,0 2.4488,62.4455 50.2013,-6.1221 48.9768,-6.1221 37.957,-11.0198 31.835,-18.3663 12.2442,-6.1221 -4.8977,-377.12167 z"
       id="path3985"
       inkscape:connector-curvature="0" />
    <path
       style="fill:url(#linearGradient4006);fill-opacity:1;stroke:#000000;stroke-width:1px;stroke-linecap:butt;stroke-linejoin:miter;stroke-opacity:1"
       d="m 2612.9688,751.71875 -0.1563,10.125 0.1563,-4.90625 26.8437,4.3125 1.7187,21.65625 7.8126,5.1875 5.1874,2.59375 0,8.65625 -5.1874,7.78125 -4.3438,2.625 0.875,30.28125 7.7812,10.40625 3.4688,13.84375 -5.1875,7.78125 -6.9375,5.21875 0,20.78125 8.6562,10.375 3.4688,9.53125 -0.875,10.375 -10.375,11.25 0,22.53125 -13.8438,11.25 -13.875,7.78125 -19.9062,8.65625 -12.9688,5.21875 -0.875,-62.34375 -31.1874,0 -0.8438,70.125 -13,4.3125 -22.5,0 -21.6562,-3.4375 -1.125,-46 -0.5938,63.3125 60.5938,2.5938 0.875,-90.06255 28.5624,0 1.75,89.18755 37.2188,-1.7188 37.2188,-1.75 27.7187,-9.5 18.1875,-14.71875 14.7188,-20.78125 9.5,-19.0625 0.875,-33.75 2.5937,-64.09375 0,-45.875 -16.4375,-32.03125 -18.1875,-17.3125 -35.5,-8.65625 -40.6875,-1.75 -9.5312,0 z m -118.875,205.96875 0.25,-25 -0.8438,0 0.5938,25 z m -0.5938,-25 -27.7188,0 0,1.71875 27.7188,-1.71875 z M 2612.8125,761.84375 2611.3438,808 l 0.75,0 0.7187,-46.15625 z M 2611.3438,808 l -23.4688,0 -2.5938,-29.4375 0.8438,29.4375 25.125,2.59375 0.094,-2.59375 z m -26.0626,-29.4375 -116.9062,4.34375 -0.8438,22.5 -31.1874,0 -1.0313,-20 1.0313,21.71875 32.9062,0 0.875,-24.21875 115.1562,-4.34375 z m -149.9687,6.84375 -1.5625,-32.8125 -66.6562,0.875 -17.3126,6.90625 -16.4687,11.28125 -12.9687,18.15625 -3.4688,26 -0.875,41.53125 0,57.15625 1.75,47.625 4.3125,21.625 13,16.4688 19.0313,12.125 28.5624,10.375 30.3126,4.3437 27.7187,-1.75 25.0937,-2.5937 0,-23.37505 -19.9062,-5.1875 -15.5938,-9.53125 -19.0312,-14.71875 -6.9375,-13 1.75,-15.5625 -10.4063,-1.75 -7.7812,-8.65625 -2.5938,-12.125 5.1876,-12.96875 10.375,-5.1875 0.875,-25.125 -9.5313,-6.0625 -3.4687,-13.84375 6.0624,-13 8.6563,-8.65625 0.875,-15.5625 -12.9687,-6.9375 -3.4688,-14.71875 4.3125,-12.125 7.8125,-9.53125 0.8438,-20.78125 32.9062,0.875 1.5625,30.21875 z"
       id="path3995"
       inkscape:connector-curvature="0" />
  </g>
  <g
     inkscape:groupmode="layer"
     id="layer5"
     inkscape:label="MoreStuff02"
     style="display:inline;filter:url(#filter4033)"
     sodipodi:insensitive="true">
    <path
       style="fill:#d2a724;fill-opacity:1;stroke:#000000;stroke-width:1px;stroke-linecap:butt;stroke-linejoin:miter;stroke-opacity:1"
       d="m 2074.4375,377.71875 0,884.84375 948.9375,0 0,-884.84375 -948.9375,0 z m 43.3125,53.65625 872.7188,0 0,780.9688 -872.7188,0 0,-780.9688 z m 291.3125,80.4375 -0.625,117.53125 72.8437,-0.59375 0,-48.375 -9.7812,-12.84375 -9.8125,-22.0625 -0.5937,-19.59375 0.5937,-14.0625 -52.625,0 z m 231.4063,2.4375 -57.5626,1.21875 -0.5937,23.28125 -2.4687,20.8125 -8.5626,15.90625 -5.5,6.75 2.4376,47.125 77.75,0.625 -5.5,-115.71875 z m -174.5,147.5625 -29.9688,0.59375 0.5938,144.5 31.2187,-1.84375 -1.4375,-111.4375 -0.4062,0 -1.2188,-29.375 1.25,-0.125 -0.031,-2.3125 z m 0.031,2.3125 0.375,29.5 43.0625,-1.21875 -17.75,-30.59375 L 2466,664.125 z m 118.75,-2.3125 3.6875,145.6875 23.25,0.625 -0.625,-145.09375 -26.3125,-1.21875 z m -0.625,1.21875 -23.875,0.59375 -15.9062,28.1875 39.1874,0 0.5938,-28.78125 z m 210,30.59375 4.9062,266.9375 24.4688,0 -4.2812,-266.9375 -25.0938,0 z m -328.75,328.7812 -33.0625,3.6563 1.2187,88.1563 34.2813,-1.8438 -2.4375,-89.9688 z m 28.1562,0 0.625,89.375 61.8126,-1.2187 -3.0626,-87.5625 -59.375,-0.5938 z m 91.2188,1.2188 0.625,85.6875 28.75,-1.2187 -2.4375,-84.4688 -26.9375,0 z m 211.8125,1.2188 0,14.0624 -12.2187,12.25 -20.2188,10.4063 -33.0625,9.1875 3.0625,43.4688 89.375,-3.6563 0,-84.5 -26.9375,-1.2187 z"
       id="path4011"
       inkscape:connector-curvature="0" />
  </g>
  <g
     inkscape:groupmode="layer"
     id="layer6"
     inkscape:label="DesatLayer"
     style="display:inline;filter:url(#filter4046)"
     sodipodi:insensitive="true">
    <rect
       style="fill:#ff9800;fill-opacity:1;stroke:#5b3056;stroke-width:15;stroke-miterlimit:4;stroke-opacity:1;stroke-dasharray:none"
       id="rect4044"
       width="1023.6158"
       height="935.45758"
       x="2057.0271"
       y="342.83777" />
    <rect
       style="fill:#000000;fill-opacity:1;stroke:none"
       id="rect4068"
       width="6.2451105"
       height="90.033676"
       x="2521.4634"
       y="692.61072" />
    <rect
       style="fill:#4b0000;fill-opacity:1;stroke:none"
       id="rect4169"
       width="260.54163"
       height="5.8879466"
       x="2558.3127"
       y="629.3053"
       ry="1.8214905" />
    <rect
       style="fill:#000000;fill-opacity:0.54970757;stroke:none"
       id="rect4171"
       width="5.8879466"
       height="111.87099"
       x="2640.7441"
       y="518.90631" />
    <rect
       style="fill:#000000;fill-opacity:0.72514619;stroke:none"
       id="rect4173"
       width="147.19867"
       height="7.3599334"
       x="2645.1599"
       y="573.36981" />
    <rect
       style="fill:#000000;fill-opacity:0.72514619;stroke:none"
       id="rect4175"
       width="7.3599334"
       height="172.22244"
       x="2492.0735"
       y="934.00653" />
    <rect
       style="fill:#000000;fill-opacity:0.72514619;stroke:none"
       id="rect4177"
       width="7.3599334"
       height="173.69443"
       x="2584.8086"
       y="934.00653" />
    <rect
       style="fill:#000000;fill-opacity:0.72514619;stroke:none"
       id="rect4181"
       width="119.23092"
       height="11.775893"
       x="2465.5776"
       y="777.97595" />
    <rect
       style="fill:#000000;fill-opacity:0.72514619;stroke:none"
       id="rect4183"
       width="7.3599334"
       height="142.7827"
       x="2465.5776"
       y="663.16101" />
    <rect
       style="fill:#000000;fill-opacity:0.72514619;stroke:none"
       id="rect4185"
       width="5.8879466"
       height="141.31071"
       x="2611.3044"
       y="666.10498" />
    <rect
       style="fill:#000000;fill-opacity:0.72514619;stroke:none"
       id="rect4187"
       width="30.91172"
       height="5.8879466"
       x="2437.6099"
       y="801.52771" />
    <rect
       style="fill:#000000;fill-opacity:0.72514619;stroke:none"
       id="rect4189"
       width="25.023773"
       height="10.303906"
       x="2587.7524"
       y="802.99969" />
    <rect
       style="fill:#000000;fill-opacity:0.72514619;stroke:none"
       id="rect4191"
       width="63.295425"
       height="10.303906"
       x="2495.0173"
       y="644.02515" />
    <rect
       style="fill:#000000;fill-opacity:0.72514619;stroke:none"
       id="rect4193"
       width="4.4159598"
       height="48.575562"
       x="2483.2415"
       y="580.72974" />
    <rect
       style="fill:#000000;fill-opacity:0.72514619;stroke:none"
       id="rect4195"
       width="30.91172"
       height="8.8319197"
       x="2434.666"
       y="1025.2697" />
    <rect
       style="fill:#000000;fill-opacity:0.72514619;stroke:none"
       id="rect4197"
       width="58.879467"
       height="10.303906"
       x="2497.9614"
       y="1023.7977" />
    <rect
       style="fill:#000000;fill-opacity:0.72514619;stroke:none"
       id="rect4199"
       width="19.135826"
       height="10.303906"
       x="2590.6965"
       y="1025.2697" />
    <rect
       style="fill:#000000;fill-opacity:0.72514619;stroke:none"
       id="rect4201"
       width="89.791183"
       height="10.303906"
       x="2732.0073"
       y="1078.2612" />
    <rect
       style="fill:#000000;fill-opacity:0.72514619;stroke:none"
       id="rect4203"
       width="88.319199"
       height="10.303906"
       x="2227.1157"
       y="1079.7332" />
  </g>
  <g
     inkscape:groupmode="layer"
     id="layer7"
     inkscape:label="LightLine"
     style="display:inline;filter:url(#filter4071)"
     sodipodi:insensitive="true">
    <rect
       style="fill:#ff0000;fill-opacity:1;stroke:none;display:inline;filter:url(#filter4046)"
       id="rect4105"
       width="8.3268137"
       height="390.3194"
       x="2248.2913"
       y="661.30182" />
    <rect
       style="fill:#ff0000;fill-opacity:1;stroke:none"
       id="rect4137"
       width="4.1634068"
       height="117.61625"
       x="2406.4492"
       y="512.54333"
       ry="2.0817034" />
    <rect
       style="fill:#ff0000;fill-opacity:1;stroke:none"
       id="rect4139"
       width="185.79204"
       height="7.2859621"
       x="2224.8206"
       y="623.91449"
       ry="2.0817034" />
    <rect
       style="fill:#ff0000;fill-opacity:1;stroke:none"
       id="rect4141"
       width="5.7246847"
       height="145.71924"
       x="2433.5115"
       y="660.86475"
       ry="2.0817034" />
    <rect
       style="fill:#ff0000;fill-opacity:1;stroke:none"
       id="rect4143"
       width="3.6429811"
       height="88.992828"
       x="2430.9092"
       y="1025.6832"
       ry="1.8214905" />
    <rect
       style="fill:#ff0000;fill-opacity:1;stroke:none"
       id="rect4145"
       width="5.1519532"
       height="181.05435"
       x="2464.1057"
       y="931.79852"
       ry="1.8214905" />
    <rect
       style="fill:#ff0000;fill-opacity:1;stroke:none"
       id="rect4147"
       width="5.2042589"
       height="146.7601"
       x="2584.4348"
       y="662.42603"
       ry="1.8214905" />
    <rect
       style="fill:#ff0000;fill-opacity:1;stroke:none"
       id="rect4149"
       width="6.2451105"
       height="177.98566"
       x="2554.2502"
       y="934.08832"
       ry="1.8214905" />
    <rect
       style="fill:#ff0000;fill-opacity:1;stroke:none"
       id="rect4151"
       width="8.3268137"
       height="45.797478"
       x="2565.6995"
       y="583.32129"
       ry="1.8214905" />
    <rect
       style="fill:#ff0000;fill-opacity:1;stroke:none"
       id="rect4153"
       width="5.8879466"
       height="142.7827"
       x="2228.5879"
       y="695.54468"
       ry="1.8214905" />
    <rect
       style="fill:#ff0000;fill-opacity:1;stroke:none"
       id="rect4155"
       width="8.8319197"
       height="82.431252"
       x="2228.5879"
       y="873.65509"
       ry="1.8214905" />
    <rect
       style="fill:#ff1500;fill-opacity:1;stroke:none"
       id="rect4161"
       width="7.3599334"
       height="54.463505"
       x="2229.1157"
       y="1029.6857"
       ry="1.8214905" />
    <rect
       style="fill:#ff1500;fill-opacity:1;stroke:none"
       id="rect4163"
       width="8.8319197"
       height="45.631588"
       x="2250.6677"
       y="577.78577"
       ry="1.8214905" />
    <rect
       style="fill:#ff1500;fill-opacity:1;stroke:none"
       id="rect4165"
       width="7.3599334"
       height="27.967747"
       x="2271.2754"
       y="546.87402"
       ry="1.8214905" />
    <rect
       style="fill:#ff1500;fill-opacity:1;stroke:none"
       id="rect4167"
       width="10.303906"
       height="25.023773"
       x="2717.2874"
       y="549.81799"
       ry="1.8214905" />
  </g>
</svg>
